<svg width="51" height="31" viewBox="0 0 51 31" fill="none" xmlns="http://www.w3.org/2000/svg">
<path d="M47.2456 30.8998C47.4835 31.0401 47.79 30.961 47.9303 30.7231L50.2162 26.847C50.3565 26.6091 50.2774 26.3026 50.0395 26.1623C49.8017 26.022 49.4951 26.1011 49.3549 26.339L47.3229 29.7845L43.8775 27.7525C43.6396 27.6122 43.3331 27.6913 43.1928 27.9292C43.0525 28.167 43.1316 28.4736 43.3695 28.6139L47.2456 30.8998ZM1.02595 1.96845C20.1174 0.976791 31.5996 8.15991 38.3171 15.5554C41.6826 19.2606 43.8601 23.0285 45.1956 25.8694C45.8631 27.2893 46.3196 28.4762 46.6085 29.3055C46.7529 29.7201 46.8554 30.0452 46.9214 30.2652C46.9545 30.3752 46.9783 30.4589 46.9938 30.5144C47.0015 30.5421 47.0071 30.5628 47.0107 30.5761C47.0125 30.5828 47.0138 30.5877 47.0146 30.5907C47.015 30.5922 47.0152 30.5932 47.0154 30.5938C47.0154 30.5941 47.0155 30.5941 47.0155 30.5943C47.0155 30.5942 47.0154 30.5941 47.4996 30.4691C47.9837 30.3442 47.9836 30.3438 47.9835 30.3433C47.9834 30.343 47.9832 30.3423 47.9831 30.3417C47.9827 30.3403 47.9823 30.3386 47.9817 30.3363C47.9805 30.3318 47.9788 30.3254 47.9766 30.3172C47.9722 30.3008 47.9657 30.277 47.9571 30.2462C47.94 30.1845 47.9142 30.0943 47.8792 29.9778C47.8093 29.7446 47.7023 29.4057 47.5528 28.9765C47.2539 28.1184 46.7846 26.899 46.1006 25.4439C44.733 22.5348 42.5042 18.6778 39.0574 14.883C32.15 7.27857 20.3824 -0.0383202 0.97408 0.969791L1.02595 1.96845Z" fill="#563521"/>
</svg>
