<svg width="56" height="18" viewBox="0 0 56 18" fill="none" xmlns="http://www.w3.org/2000/svg">
<rect width="56" height="18" fill="#8A8A8A"/>
<g clip-path="url(#clip0_0_1)">
<rect width="393" height="6187" transform="translate(-168 -578)" fill="white"/>
<path d="M53.7718 0.023972C54.0416 -0.0347172 54.3079 0.13645 54.3666 0.406283L55.323 4.80348C55.3817 5.07331 55.2105 5.33963 54.9407 5.39832C54.6709 5.45701 54.4046 5.28584 54.3459 5.01601L53.4957 1.10739L49.5871 1.95752C49.3173 2.01621 49.051 1.84504 48.9923 1.57521C48.9336 1.30537 49.1048 1.03905 49.3746 0.980366L53.7718 0.023972ZM0.81467 13.0172C18.6342 19.9406 31.7888 16.7167 40.4852 11.7983C44.8422 9.33417 48.0905 6.43819 50.2489 4.15881C51.3277 3.01948 52.133 2.03543 52.6672 1.33839C52.9343 0.989908 53.1335 0.713306 53.2651 0.525074C53.3309 0.430963 53.3798 0.35896 53.4119 0.311124C53.4279 0.287206 53.4397 0.269333 53.4473 0.257762C53.4511 0.251976 53.4538 0.247767 53.4555 0.245164C53.4564 0.243863 53.4569 0.242964 53.4573 0.242472C53.4574 0.242225 53.4575 0.24216 53.4575 0.242037C53.4575 0.242075 53.4574 0.242214 53.878 0.512549C54.2987 0.782884 54.2984 0.783229 54.2982 0.783677C54.298 0.783963 54.2976 0.784514 54.2972 0.785084C54.2965 0.786227 54.2955 0.787778 54.2942 0.789733C54.2917 0.793641 54.2881 0.799164 54.2834 0.806271C54.2741 0.820483 54.2605 0.841027 54.2427 0.867642C54.2071 0.920871 54.1544 0.998394 54.0846 1.09813C53.9452 1.2976 53.7374 1.58599 53.4609 1.94668C52.9082 2.66796 52.0804 3.67893 50.975 4.84637C48.7648 7.18051 45.4398 10.145 40.9775 12.6688C32.0354 17.7261 18.5678 20.9876 0.452513 13.9493L0.81467 13.0172Z" fill="#563521"/>
</g>
<defs>
<clipPath id="clip0_0_1">
<rect width="393" height="6187" fill="white" transform="translate(-168 -578)"/>
</clipPath>
</defs>
</svg>
